#tb 0: 1/5
0,          0,          0,        1,  1180116, 0x01d01336
0,          1,          1,        1,  1180116, 0x01d01336
0,          2,          2,        1,  1180116, 0x01d01336
0,          3,          3,        1,  1180116, 0x01d01336
0,          4,          4,        1,  1180116, 0x01d01336
0,          5,          5,        1,  1180116, 0x01d01336
0,          6,          6,        1,  1180116, 0x01d01336
0,          7,          7,        1,  1180116, 0x01d01336
0,          8,          8,        1,  1180116, 0x01d01336
0,          9,          9,        1,  1180116, 0x01d01336
0,         10,         10,        1,  1180116, 0x056fdadd
0,         11,         11,        1,  1180116, 0x6f73e080
0,         12,         12,        1,  1180116, 0x5244d9e5
0,         13,         13,        1,  1180116, 0x629bf10f
0,         14,         14,        1,  1180116, 0x97c726cb
